<svg width="16" height="16" viewBox="0 0 16 16" fill="none" xmlns="http://www.w3.org/2000/svg">
<path d="M15.0595 3.05938C15.6454 2.47344 15.6454 1.52188 15.0595 0.935944C14.4735 0.350006 13.522 0.350006 12.936 0.935944L8.0001 5.87657L3.05947 0.940631C2.47354 0.354694 1.52197 0.354694 0.936035 0.940631C0.350098 1.52657 0.350098 2.47813 0.936035 3.06407L5.87666 8.00001L0.940723 12.9406C0.354785 13.5266 0.354785 14.4781 0.940723 15.0641C1.52666 15.65 2.47822 15.65 3.06416 15.0641L8.0001 10.1234L12.9407 15.0594C13.5267 15.6453 14.4782 15.6453 15.0642 15.0594C15.6501 14.4734 15.6501 13.5219 15.0642 12.9359L10.1235 8.00001L15.0595 3.05938Z" fill="white"/>
</svg>
